<svg xmlns="http://www.w3.org/2000/svg" width="1000" height="1000" ><circle cx="500" cy="500" r="400" fill="rgb(247, 237, 226" stroke="rgb(29, 29, 29" stroke-width="10px" ></circle><defs ><line id="hourMark" x1="500" x2="500" y1="160" y2="100" stroke="rgb(29, 29, 29)" stroke-width="8px" stroke-linecap="round" ></line></defs><use href="#hourMark" transform="rotate(0 500 500) " ></use><use href="#hourMark" transform="rotate(30 500 500) " ></use><use href="#hourMark" transform="rotate(60 500 500) " ></use><use href="#hourMark" transform="rotate(90 500 500) " ></use><use href="#hourMark" transform="rotate(120 500 500) " ></use><use href="#hourMark" transform="rotate(150 500 500) " ></use><use href="#hourMark" transform="rotate(180 500 500) " ></use><use href="#hourMark" transform="rotate(210 500 500) " ></use><use href="#hourMark" transform="rotate(240 500 500) " ></use><use href="#hourMark" transform="rotate(270 500 500) " ></use><use href="#hourMark" transform="rotate(300 500 500) " ></use><use href="#hourMark" transform="rotate(330 500 500) " ></use><line x1="500" y1="520" x2="500" y2="200" stroke="rgb(29, 29, 29" stroke-width="6px" stroke-linecap="round" transform="rotate(188 500 500) " ><animateTransform attributeName="transform" type="rotate" from="188 500 500" to="548 500 500" dur="3600s" repeatCount="indefinite" ></animateTransform></line><line x1="500" y1="520" x2="500" y2="250" stroke="rgb(29, 29, 29" stroke-width="8px" stroke-linecap="round" transform="rotate(285 500 500) " ><animateTransform attributeName="transform" type="rotate" from="285 500 500" to="645 500 500" dur="43200s" repeatCount="indefinite" ></animateTransform></line><line x1="500" y1="570" x2="500" y2="110" stroke="red" stroke-width="4px" stroke-linecap="round" transform="rotate(126 500 500) " ><animateTransform attributeName="transform" type="rotate" from="126 500 500" to="486 500 500" dur="60s" repeatCount="indefinite" ></animateTransform></line><circle cx="500" cy="500" r="10" fill="rgb(29, 29, 29" ></circle></svg>
